<?xml version="1.0" standalone="no"?>
<svg xmlns="http://www.w3.org/2000/svg" class="img-fluid d-block my-auto aos-init aos-animate" data-aos="zoom-in" id="b7804aec-61a6-4222-8d2d-62658e90c1cd" data-name="Layer 1" width="970.15365" height="753.56388" viewBox="0 0 970.15365 753.56388" src="https://42f2671d685f51e10fc6-b9fcecea3e50b3b59bdc28dead054ebc.ssl.cf5.rackcdn.com/illustrations/mobile_app_0irr.svg" alt="Mobile app"><title>mobile app</title><path d="M833.69164,503.89989,641.02788,263.14232a64.6863,64.6863,0,0,1-31.15834,15.733c-36.27094,7.14326-71.69282-17.62565-79.117-55.32291-5.24805-26.64771,4.91144-52.60794,24.12256-68.06873L489.18227,73.39221l-374.2591,319.862L459.43248,823.76189Z" transform="translate(-114.92317 -73.39221)" fill="#f2f2f2"></path><path d="M426.738,308.9623l-160.52554,32.803a31.0415,31.0415,0,0,0-22.216,42.87343L426.99809,802.19194a40.77739,40.77739,0,0,0,49.30178,22.61737l184.96049-56.94148a34.8392,34.8392,0,0,0,20.50891-49.65592l-206.33544-387.973A46.15067,46.15067,0,0,0,426.738,308.9623Z" transform="translate(-114.92317 -73.39221)" fill="#3f3d56"></path><path d="M266.00792,345.83586l26.394-5.20447h0a18.73011,18.73011,0,0,0,20.1848,10.31009l95.37961-17.11942a6.6907,6.6907,0,0,0,5.16535-8.70125l-2.59458-7.78368,26.26986-5.18a26.02686,26.02686,0,0,1,27.90391,13.10875L678.39305,718.5128a25.93687,25.93687,0,0,1-15.242,37.19781L481.03892,811.103a32.61871,32.61871,0,0,1-39.239-17.82412L252.37534,372.23568A18.97367,18.97367,0,0,1,266.00792,345.83586Z" transform="translate(-114.92317 -73.39221)" fill="#6c63ff"></path><line x1="264.65365" y1="255.06388" x2="225.65365" y2="263.06388" fill="none" stroke="#2f2e41" stroke-miterlimit="10" stroke-width="2"></line><ellipse cx="215.65365" cy="264.56388" rx="4" ry="3.5" fill="#2f2e41"></ellipse><polygon points="241.654 302.064 413.654 671.064 652.654 606.064 652.654 598.064 466.654 251.064 245.654 299.064 244.604 299.854 241.654 302.064" fill="#fff"></polygon><polygon points="241.654 302.064 413.654 671.064 652.654 606.064 652.654 598.064 414.654 665.064 244.604 299.854 241.654 302.064" opacity="0.2"></polygon><line x1="548.65365" y1="458.06388" x2="372.65365" y2="503.06388" fill="#3f3d56" stroke="#3f3d56" stroke-miterlimit="10" stroke-width="2"></line><line x1="558.65365" y1="477.06388" x2="381.65365" y2="523.06388" fill="#3f3d56" stroke="#3f3d56" stroke-miterlimit="10" stroke-width="2"></line><line x1="535.65365" y1="503.06388" x2="424.65365" y2="533.06388" fill="#3f3d56" stroke="#3f3d56" stroke-miterlimit="10" stroke-width="2"></line><polygon points="434.654 588.064 450.864 623.354 451.654 625.064 454.414 624.364 588.654 590.064 588.654 585.064 570.654 551.064 437.654 587.064 436.464 587.464 434.654 588.064" fill="#6c63ff"></polygon><polygon points="434.654 588.064 450.864 623.354 451.654 625.064 454.414 624.364 588.654 590.064 588.654 585.064 453.654 621.064 436.464 587.464 434.654 588.064" opacity="0.2"></polygon><path d="M561.47586,452.373c-11.45137-29.92693-43.07216-47.07722-68.45735-38.99687-23.26935,7.40686-32.828,33.6919-23.04839,59.24994s36.3907,43.83759,61.25218,40.5916C558.34438,509.67649,572.92723,482.2999,561.47586,452.373Z" transform="translate(-114.92317 -73.39221)" fill="#3f3d56" stroke="#3f3d56" stroke-miterlimit="10" stroke-width="2"></path><path d="M561.47586,452.373c-11.45137-29.92693-43.07216-47.07722-68.45735-38.99687-23.26935,7.40686-32.828,33.6919-23.04839,59.24994s36.3907,43.83759,61.25218,40.5916C558.34438,509.67649,572.92723,482.2999,561.47586,452.373Z" transform="translate(-114.92317 -73.39221)" opacity="0.2"></path><path d="M566.47586,447.373c-11.45137-29.92693-43.07216-47.07722-68.45735-38.99687-23.26935,7.40686-32.828,33.6919-23.04839,59.24994s36.3907,43.83759,61.25218,40.5916C563.34438,504.67649,577.92723,477.2999,566.47586,447.373Z" transform="translate(-114.92317 -73.39221)" fill="#3f3d56" stroke="#3f3d56" stroke-miterlimit="10" stroke-width="2"></path><circle cx="619.42905" cy="56.91588" r="14.75556" fill="none" stroke="#3f3d56" stroke-miterlimit="10" stroke-width="2"></circle><circle cx="814.42905" cy="485.91588" r="14.75556" fill="none" stroke="#3f3d56" stroke-miterlimit="10" stroke-width="2"></circle><circle cx="170.69572" cy="93.91588" r="14.75556" fill="none" stroke="#3f3d56" stroke-miterlimit="10" stroke-width="2"></circle><circle cx="479.37657" cy="139.7294" r="54.31516" fill="#f2f2f2"></circle><circle cx="692.9535" cy="234.91667" r="36.79985" fill="#2f2e41"></circle></svg>
